<svg width="157" height="157" viewBox="0 0 157 157" fill="none" xmlns="http://www.w3.org/2000/svg">
<g filter="url(#filter0_d_0_2191)">
<circle cx="78.5" cy="63.5" r="48.5" fill="#FF2D59"/>
<path d="M77.8117 55.6649H71.3367C70.6524 55.6647 69.9847 55.8751 69.4242 56.2675C68.8636 56.6599 68.4374 57.2153 68.2034 57.8583L61.9367 75.0949C61.715 75.7033 61.8667 76.3849 62.3234 76.8433L62.8117 77.3316L73.515 66.6283C73.5134 66.5849 73.5017 66.5416 73.5017 66.4983C73.5017 66.0038 73.6483 65.5205 73.923 65.1094C74.1977 64.6982 74.5882 64.3778 75.045 64.1886C75.5018 63.9994 76.0045 63.9499 76.4894 64.0463C76.9744 64.1428 77.4198 64.3809 77.7695 64.7305C78.1191 65.0801 78.3572 65.5256 78.4537 66.0106C78.5501 66.4955 78.5006 66.9982 78.3114 67.455C78.1222 67.9118 77.8017 68.3022 77.3906 68.5769C76.9795 68.8517 76.4962 68.9983 76.0017 68.9983C75.9584 68.9983 75.915 68.9866 75.8717 68.9849L65.1684 79.6883L65.6567 80.1766C65.8808 80.4013 66.1645 80.5571 66.4743 80.6256C66.7841 80.6941 67.1071 80.6725 67.405 80.5633L84.6417 74.2949C85.2847 74.0609 85.8401 73.6347 86.2325 73.0742C86.6249 72.5136 86.8352 71.8459 86.835 71.1616V64.6866L90.1667 61.3566L81.1434 52.3333L77.8117 55.6649ZM91.7334 59.1016L83.4 50.7683L86.9334 47.2333L95.2667 55.5666L91.7334 59.1016Z" fill="white"/>
</g>
<defs>
<filter id="filter0_d_0_2191" x="0" y="0" width="157" height="157" filterUnits="userSpaceOnUse" color-interpolation-filters="sRGB">
<feFlood flood-opacity="0" result="BackgroundImageFix"/>
<feColorMatrix in="SourceAlpha" type="matrix" values="0 0 0 0 0 0 0 0 0 0 0 0 0 0 0 0 0 0 127 0" result="hardAlpha"/>
<feOffset dy="15"/>
<feGaussianBlur stdDeviation="15"/>
<feComposite in2="hardAlpha" operator="out"/>
<feColorMatrix type="matrix" values="0 0 0 0 1 0 0 0 0 0.176471 0 0 0 0 0.34902 0 0 0 0.4 0"/>
<feBlend mode="normal" in2="BackgroundImageFix" result="effect1_dropShadow_0_2191"/>
<feBlend mode="normal" in="SourceGraphic" in2="effect1_dropShadow_0_2191" result="shape"/>
</filter>
</defs>
</svg>
